<?xml version="1.0" standalone="no"?><!DOCTYPE svg PUBLIC "-//W3C//DTD SVG 20010904//EN"
"http://www.w3.org/TR/2001/REC-SVG-20010904/DTD/svg10.dtd"><svg version="1.0" xmlns="http://www.w3.org/2000/svg" width="700.000000pt" height="700.000000pt" viewBox="0 0 700.000000 700.000000" preserveAspectRatio="xMidYMid meet"><metadata>Created by potrace 1.14, written by Peter Selinger 2001-2017</metadata><g transform="translate(0.000000,700.000000) scale(0.100000,-0.100000)" fill="#000000" stroke="none"><path d="M3454 6986 c-17 -7 -112 -69 -212 -137 -99 -68 -243 -166 -319 -217
-414 -280 -620 -420 -953 -648 -140 -96 -262 -177 -270 -181 -8 -4 -19 -11
-25 -15 -5 -5 -68 -50 -139 -101 -92 -65 -139 -106 -163 -140 -60 -88 -74
-193 -42 -309 35 -127 68 -168 305 -388 93 -88 484 -420 634 -540 24 -19 48
-40 54 -45 6 -6 81 -66 166 -135 85 -69 162 -130 170 -137 113 -91 152 -123
185 -148 21 -16 55 -44 74 -60 20 -17 56 -47 81 -65 25 -19 52 -40 60 -47 8
-7 44 -35 80 -63 36 -28 82 -65 103 -82 21 -17 77 -60 125 -97 48 -36 89 -68
92 -72 25 -30 232 -171 262 -180 75 -20 147 15 334 162 33 25 136 105 229 177
94 73 196 153 228 177 82 65 82 65 105 -3 l20 -59 -175 -134 c-97 -74 -181
-138 -187 -144 -6 -5 -38 -30 -71 -55 -33 -25 -62 -47 -65 -50 -3 -3 -34 -28
-70 -55 -36 -28 -67 -52 -70 -55 -19 -20 -116 -84 -153 -100 -89 -39 -130 -32
-232 44 -55 41 -497 385 -630 491 -82 65 -372 297 -385 308 -8 6 -65 52 -125
101 -112 91 -276 227 -285 236 -11 11 -106 87 -118 94 -10 6 -12 -113 -12
-601 1 -576 2 -611 20 -663 30 -83 50 -119 109 -193 60 -76 113 -122 221 -194
205 -137 547 -256 853 -298 27 -4 56 -8 66 -10 122 -23 566 -24 686 -1 11 2
43 7 70 10 171 23 393 90 552 165 190 91 327 193 456 340 l47 53 0 549 0 550
-80 -63 c-129 -100 -114 -98 -139 -27 -22 59 -22 61 -4 74 10 7 84 64 165 127
80 62 159 122 174 133 15 11 50 38 78 61 28 22 83 64 121 93 39 29 84 64 100
77 17 13 77 60 135 104 205 157 212 166 214 260 0 54 -24 119 -49 127 -7 2
-509 -372 -610 -455 -5 -4 -37 -28 -70 -52 -33 -25 -62 -47 -65 -50 -3 -3 -72
-57 -155 -119 -82 -63 -155 -118 -162 -123 -8 -6 -21 1 -40 22 -15 18 -44 45
-64 61 l-37 29 -146 -116 -145 -117 62 -57 c34 -32 60 -60 57 -62 -3 -3 -54
-42 -115 -88 -168 -128 -188 -143 -221 -170 -17 -14 -44 -34 -59 -45 -15 -11
-80 -61 -144 -112 -138 -110 -170 -117 -217 -46 -38 59 -33 182 11 250 38 59
141 142 990 797 127 97 245 189 264 204 19 15 47 36 62 47 35 25 420 322 560
431 121 94 139 122 120 184 -6 21 -28 54 -49 74 -20 20 -230 175 -467 346
-236 170 -440 317 -452 326 -12 9 -67 48 -121 87 -145 105 -775 560 -787 569
-25 20 -213 155 -237 171 -38 24 -125 31 -164 13z"/><path d="M4497 1624 c-1 -1 -31 -4 -67 -7 -234 -19 -428 -138 -486 -299 -22
-60 -22 -171 1 -238 24 -72 105 -154 195 -197 76 -36 130 -53 422 -127 261
-67 316 -86 384 -130 116 -77 128 -235 25 -344 -39 -42 -150 -97 -226 -112
-67 -14 -227 -18 -295 -8 -186 27 -346 143 -399 289 l-9 26 -76 -12 c-42 -7
-79 -13 -81 -14 -3 0 -11 -1 -19 -1 -12 0 -12 -7 0 -47 46 -153 203 -297 390
-357 95 -31 205 -44 339 -41 136 3 165 7 255 32 252 71 392 238 377 450 -12
176 -127 289 -362 358 -50 15 -97 28 -105 30 -79 17 -418 108 -462 125 -104
38 -164 95 -175 163 -11 69 5 122 52 174 75 84 208 133 360 133 238 -1 429
-116 480 -290 12 -39 18 -40 110 -26 79 12 90 13 92 15 5 4 -22 83 -45 131
-36 77 -158 196 -242 236 -69 33 -146 60 -195 68 -65 12 -232 25 -238 20z"/><path d="M27 1592 l-27 -3 0 -779 0 -779 88 2 87 2 1 587 c0 323 3 590 6 593
3 3 22 -26 42 -66 20 -40 54 -104 75 -143 35 -64 120 -225 248 -466 25 -47 60
-112 78 -145 18 -33 58 -109 90 -170 111 -209 95 -190 163 -191 l59 -2 38 72
c20 39 47 89 59 111 12 22 50 94 85 160 35 66 78 147 96 180 62 114 113 210
155 290 61 115 128 240 172 320 l38 70 0 -602 0 -601 83 3 c45 1 84 3 87 4 3
0 5 350 5 776 l0 776 -88 -3 -88 -3 -46 -85 c-25 -47 -74 -138 -109 -203 -35
-65 -64 -119 -64 -121 0 -2 -25 -47 -55 -101 -30 -53 -55 -99 -55 -101 0 -2
-22 -43 -48 -91 -27 -49 -75 -137 -107 -198 -32 -60 -77 -144 -99 -185 -23
-41 -57 -105 -76 -142 -19 -38 -38 -68 -42 -68 -4 0 -38 60 -77 133 -39 72
-86 159 -104 192 -18 33 -57 104 -85 158 -29 54 -78 144 -109 200 -30 56 -80
149 -111 207 -30 58 -63 117 -73 132 -11 14 -19 31 -19 36 0 6 -13 32 -29 59
-16 26 -45 78 -65 116 -20 37 -42 67 -49 68 -65 3 -106 3 -130 1z"/><path d="M2843 1592 l-91 -3 -102 -257 c-57 -141 -109 -270 -116 -287 -7 -16
-70 -174 -139 -350 -70 -176 -133 -333 -140 -350 -7 -16 -32 -79 -55 -140 -24
-60 -49 -123 -56 -139 -8 -16 -14 -31 -14 -33 0 -2 44 -3 97 -1 l97 3 75 188
74 187 401 0 401 0 75 -188 75 -187 93 -2 c50 -1 92 2 92 7 0 9 -32 97 -50
135 -5 11 -93 231 -195 490 -399 1005 -363 923 -399 927 -17 1 -72 2 -123 0z
m363 -1015 c5 -16 -15 -17 -330 -17 -229 0 -336 3 -336 11 0 5 75 197 167 426
l166 415 164 -408 c90 -225 166 -417 169 -427z"/><path d="M6174 1592 l-41 -3 -234 -587 c-385 -967 -379 -952 -379 -965 0 -4
42 -6 93 -5 l92 3 75 187 75 188 402 0 402 0 7 -22 c3 -13 15 -43 26 -68 21
-48 24 -55 58 -140 11 -30 25 -64 29 -75 5 -11 13 -32 19 -46 10 -26 13 -27
101 -27 67 -1 91 3 91 12 0 7 -85 226 -189 487 -103 261 -239 602 -301 759
-62 157 -116 288 -119 292 -7 8 -143 15 -207 10z m246 -592 c90 -223 165 -413
167 -422 5 -16 -19 -18 -335 -20 l-340 -3 14 35 c8 19 85 211 171 427 86 216
158 392 159 390 1 -1 75 -184 164 -407z"/></g></svg>