<svg xmlns="http://www.w3.org/2000/svg" xmlns:xlink="http://www.w3.org/1999/xlink"><defs>
<clipPath id="clip0_1114_1826">
<rect width="10" height="10" fill="currentColor"/>
</clipPath>
</defs><symbol id="arrow-left" viewBox="0 0 11 12"><g fill="none">
<path d="M11 5.6875H1M1 5.6875L5.96689 11M1 5.6875L5.96689 1" stroke="#316DC2"/>
</g></symbol><symbol id="arrow-right" viewBox="0 0 11 12"><g fill="none">
<path d="M0 5.6875H10M10 5.6875L5.03311 11M10 5.6875L5.03311 1" stroke="#316DC2"/>
</g></symbol><symbol id="btn-icon-cross" viewBox="0 0 20 20"><g fill="none">
<path d="M2 18L10 10M10 10L18 2M10 10L18 18M10 10L2 2" stroke="#316DC2" stroke-linecap="round" stroke-linejoin="round"/>
</g></symbol><symbol id="button-arrow" viewBox="0 0 10 10"><g fill="none">
<g clip-path="url(#clip0_1114_1826)">
<path d="M1 9L9 1M9 1H1.05298M9 1V8.94702" stroke="currentColor"/>
</g>

</g></symbol><symbol id="icon-angle" viewBox="0 0 20 20"><g fill="none">
<path d="M20 20C8.95431 20 0 11.0457 0 0V20H20Z" fill="currentColor"/>
</g></symbol><symbol id="icon-check" viewBox="0 0 10 8"><g fill="none">
<path d="M1 3.5L3.94737 7L9 1" stroke="#316DC2" stroke-linecap="round" stroke-linejoin="round"/>
</g></symbol><symbol id="icon-menu" viewBox="0 0 20 20"><g fill="none">
<path d="M1 6H19M1 10H19M1 14H19" stroke="white" stroke-linecap="round"/>
</g></symbol><symbol id="icon-minus" viewBox="0 0 18 2"><g fill="none">
<path d="M0 1H9H18" stroke="#316DC2"/>
</g></symbol><symbol id="icon-ok" viewBox="0 0 9 16"><g fill="none">
<path d="M4.5 2.42035C5.41587 2.42035 6.1607 3.18736 6.1607 4.1305C6.1607 5.0708 5.41587 5.83781 4.5 5.83781C3.58413 5.83781 2.8393 5.0708 2.8393 4.1305C2.8393 3.18736 3.58413 2.42035 4.5 2.42035ZM4.5 8.25816C6.71243 8.25816 8.51106 6.40597 8.51106 4.1305C8.51106 1.85219 6.71243 0 4.5 0C2.28757 0 0.491701 1.85219 0.491701 4.1305C0.491701 6.40597 2.28757 8.25816 4.5 8.25816ZM6.12208 11.6273C6.93863 11.4342 7.72485 11.1018 8.45037 10.6331C8.99934 10.278 9.16486 9.53083 8.82003 8.96551C8.47244 8.39735 7.74967 8.22691 7.19795 8.58485C5.55656 9.6473 3.44344 9.6473 1.79929 8.58485C1.25033 8.22691 0.524805 8.39735 0.179975 8.96551C-0.164855 9.53083 0.000663014 10.278 0.549632 10.6331C1.27515 11.1018 2.06136 11.4342 2.87792 11.6273L0.63515 13.934C0.177216 14.4056 0.177216 15.1726 0.63515 15.6442C0.866875 15.88 1.16481 15.9993 1.4655 15.9993C1.76619 15.9993 2.06688 15.88 2.29861 15.6442L4.5 13.3772L6.70415 15.6442C7.16208 16.1186 7.90416 16.1186 8.36485 15.6442C8.82278 15.1726 8.82278 14.4056 8.36485 13.934L6.12208 11.6273Z" fill="currentColor"/>
</g></symbol><symbol id="icon-plus" viewBox="0 0 18 18"><g fill="none">
<path d="M9 0V9M9 9V18M9 9H0M9 9H18" stroke="white"/>
</g></symbol><symbol id="icon-reddit" viewBox="0 0 14 15"><g fill="none">
<path d="M8.36171 0C7.91277 0 7.49149 0.244007 7.22128 0.59589C6.95106 0.947774 6.80213 1.37671 6.69362 1.82877C6.52128 2.55565 6.46808 3.36216 6.45532 4.08904C5.19361 4.17894 4.05105 4.57962 3.10211 5.19863C2.717 4.85188 2.25317 4.65925 1.80849 4.66438C1.3021 4.66952 0.821252 4.90325 0.463803 5.38356C-0.219178 6.30051 -0.140455 7.80051 0.651038 8.69178C0.602102 8.96661 0.565931 9.24914 0.565931 9.53425C0.565931 12.5548 3.44679 15 7 15C10.5532 15 13.4341 12.5522 13.4341 9.53425C13.4341 9.24914 13.3979 8.96661 13.349 8.69178C14.1405 7.80051 14.2192 6.30051 13.5362 5.38356C13.1788 4.90325 12.6979 4.66952 12.1915 4.66438C11.7468 4.65925 11.283 4.85188 10.8979 5.19863C9.9532 4.58219 8.81703 4.18151 7.5617 4.08904C7.57873 3.41866 7.62341 2.7226 7.74894 2.19863C7.82766 1.86986 7.92128 1.63099 8.02128 1.5C8.12128 1.36901 8.19362 1.31507 8.36171 1.31507C8.72554 1.31507 8.77235 1.44092 8.9915 1.74658C9.10214 1.90068 9.2298 2.09332 9.43405 2.28082C9.63831 2.46832 9.94044 2.63014 10.2681 2.63014V1.31507C10.1766 1.31507 10.1596 1.3125 10.0979 1.25342C10.0362 1.19435 9.95108 1.05822 9.82554 0.883562C9.57448 0.531678 9.08724 0 8.36171 0ZM11.9021 0.123288C11.0553 0.123288 10.3702 0.950343 10.3702 1.9726C10.3702 2.99486 11.0553 3.82192 11.9021 3.82192C12.749 3.82192 13.4341 2.99486 13.4341 1.9726C13.4341 0.950343 12.749 0.123288 11.9021 0.123288ZM11.9021 0.780822C12.4468 0.780822 12.8894 1.31507 12.8894 1.9726C12.8894 2.63014 12.4468 3.16438 11.9021 3.16438C11.3575 3.16438 10.9149 2.63014 10.9149 1.9726C10.9149 1.31507 11.3575 0.780822 11.9021 0.780822ZM7 5.11644C10.0149 5.11644 12.566 7.14298 12.566 9.53425C12.566 11.9281 10.0149 13.9521 7 13.9521C3.98509 13.9521 1.43402 11.9281 1.43402 9.53425C1.43402 7.14298 3.98509 5.11644 7 5.11644ZM1.82551 5.71233C1.97658 5.7149 2.13402 5.75599 2.28509 5.83562C1.73828 6.33647 1.30423 6.91182 1.00849 7.56164C0.80423 7.05308 0.85955 6.41866 1.11061 6.08219C1.29359 5.83562 1.54679 5.70976 1.82551 5.71233ZM12.1745 5.71233C12.4532 5.70976 12.7064 5.83562 12.8894 6.08219C13.1405 6.41866 13.1958 7.05308 12.9915 7.56164C12.6958 6.91182 12.2617 6.33647 11.7149 5.83562C11.866 5.75599 12.0234 5.7149 12.1745 5.71233ZM4.82127 7.35616C4.27658 7.35616 3.83403 7.89041 3.83403 8.54795C3.83403 9.20548 4.27658 9.73973 4.82127 9.73973C5.36595 9.73973 5.80851 9.20548 5.80851 8.54795C5.80851 7.89041 5.36595 7.35616 4.82127 7.35616ZM9.17873 7.35616C8.63405 7.35616 8.19149 7.89041 8.19149 8.54795C8.19149 9.20548 8.63405 9.73973 9.17873 9.73973C9.72342 9.73973 10.166 9.20548 10.166 8.54795C10.166 7.89041 9.72342 7.35616 9.17873 7.35616ZM4.29361 11.4041C4.64042 12.2697 5.71276 13.1096 7 13.1096C8.28724 13.1096 9.37661 12.2697 9.72342 11.4041C9.09363 11.8947 8.10001 12.226 7 12.226C5.9 12.226 4.9234 11.8947 4.29361 11.4041Z" fill="currentColor"/>
</g></symbol><symbol id="icon-star" viewBox="0 0 18 22"><g fill="none">
<path d="M9 0L12.0138 5.47476L18 5.5L15.0275 11L18 16.5L12.0138 16.5252L9 22L5.98623 16.5252L0 16.5L2.97246 11L0 5.5L5.98623 5.47476L9 0Z" fill="white"/>
</g></symbol><symbol id="icon-vk" viewBox="0 0 16 9"><g fill="none">
<path d="M15.8574 8.02743C15.8144 7.95645 15.5484 7.38659 14.2683 6.21531C12.9282 4.98883 13.1082 5.18799 14.7223 3.06728C15.7054 1.77572 16.0984 0.986988 15.9754 0.649804C15.8584 0.328395 15.1353 0.413184 15.1353 0.413184L12.7312 0.426986C12.7312 0.426986 12.5531 0.403324 12.4201 0.481212C12.2911 0.558114 12.2081 0.735579 12.2081 0.735579C12.2081 0.735579 11.8271 1.7353 11.3191 2.58516C10.248 4.37855 9.81894 4.4732 9.64393 4.36179C9.2369 4.10249 9.33891 3.31869 9.33891 2.76263C9.33891 1.02445 9.60593 0.299803 8.81787 0.112478C8.55585 0.0503654 8.36384 0.00895679 7.69479 0.00205536C6.83672 -0.00681791 6.10967 0.00501311 5.69864 0.203183C5.42462 0.335296 5.21361 0.630086 5.34262 0.646846C5.50163 0.667551 5.86165 0.74248 6.05267 0.998819C6.29969 1.3291 6.29069 2.07248 6.29069 2.07248C6.29069 2.07248 6.4327 4.11827 5.95966 4.37263C5.63464 4.54714 5.1896 4.19122 4.23453 2.56347C3.7455 1.73037 3.37547 0.808537 3.37547 0.808537C3.37547 0.808537 3.30447 0.636987 3.17746 0.545297C3.02345 0.433888 2.80743 0.398395 2.80743 0.398395L0.521262 0.412198C0.521262 0.412198 0.178236 0.422057 0.0522271 0.568959C-0.0597811 0.700086 0.0432264 0.970227 0.0432264 0.970227C0.0432264 0.970227 1.83336 5.09827 3.85951 7.17954C5.71864 9.0873 7.8288 8.96208 7.8288 8.96208H8.78487C8.78487 8.96208 9.07389 8.93054 9.2209 8.77377C9.35691 8.62983 9.35191 8.35969 9.35191 8.35969C9.35191 8.35969 9.33291 7.09475 9.92895 6.90842C10.516 6.72504 11.2701 8.13095 12.0691 8.67222C12.6732 9.08138 13.1322 8.99166 13.1322 8.99166L15.2693 8.96208C15.2693 8.96208 16.3874 8.89406 15.8574 8.02743Z" fill="currentColor"/>
</g></symbol><symbol id="logo" viewBox="0 0 28 28"><g fill="none">
<path d="M0 27.8701V21.633H0.676259L3.51154 26.8782L6.33178 21.633H7.01806V27.8657H6.31676V23.0536L3.74697 27.8701H3.27109L0.706315 23.0536V27.8701H0Z" fill="#316DC2"/>
<path d="M18.2848 28C17.7805 28 17.3264 27.9278 16.9223 27.7834C16.5215 27.6362 16.1892 27.4283 15.9254 27.1597C15.6649 26.8912 15.4946 26.5721 15.4145 26.2025L16.1659 26.0942C16.2861 26.4985 16.5399 26.8161 16.9273 27.0471C17.3147 27.2752 17.7772 27.3893 18.3149 27.3893C18.6689 27.3893 18.9861 27.3416 19.2666 27.2464C19.5472 27.1482 19.7676 27.0096 19.9279 26.8305C20.0882 26.6515 20.1683 26.4393 20.1683 26.1938C20.1683 26.0321 20.1349 25.895 20.0681 25.7824C20.0013 25.6669 19.9128 25.5716 19.8026 25.4965C19.6924 25.4214 19.5722 25.3593 19.442 25.3103C19.3117 25.2583 19.1848 25.2164 19.0613 25.1846L17.2329 24.7125C17.0124 24.6577 16.8087 24.5884 16.6217 24.5046C16.4347 24.418 16.2711 24.3155 16.1308 24.1971C15.9939 24.0758 15.887 23.9343 15.8102 23.7726C15.7334 23.6109 15.695 23.4261 15.695 23.2182C15.695 22.8659 15.8019 22.5613 16.0156 22.3043C16.2293 22.0473 16.5215 21.8495 16.8922 21.7109C17.2629 21.5723 17.6854 21.5045 18.1596 21.5074C18.6405 21.5074 19.0696 21.581 19.447 21.7283C19.8277 21.8755 20.1416 22.0863 20.3887 22.3606C20.6359 22.6321 20.7995 22.954 20.8796 23.3265L20.1082 23.4478C20.0581 23.1764 19.9429 22.941 19.7626 22.7418C19.5822 22.5425 19.3518 22.3895 19.0713 22.2827C18.7941 22.1729 18.4885 22.1166 18.1546 22.1137C17.8306 22.1137 17.5418 22.1614 17.288 22.2567C17.0375 22.3491 16.8388 22.4761 16.6918 22.6378C16.5449 22.7995 16.4714 22.9843 16.4714 23.1922C16.4714 23.403 16.5382 23.5719 16.6718 23.699C16.8087 23.8261 16.9757 23.9257 17.1727 23.9979C17.3731 24.0701 17.5668 24.1292 17.7538 24.1754L19.1665 24.5349C19.3134 24.5696 19.4854 24.6201 19.6824 24.6865C19.8828 24.7501 20.0765 24.8425 20.2635 24.9637C20.4538 25.0821 20.6108 25.2381 20.7344 25.4315C20.8579 25.625 20.9197 25.8704 20.9197 26.1679C20.9197 26.4566 20.8529 26.715 20.7193 26.9432C20.5891 27.1713 20.4038 27.3633 20.1633 27.5192C19.9262 27.6751 19.6473 27.7935 19.3267 27.8744C19.0095 27.9581 18.6622 28 18.2848 28Z" fill="#316DC2"/>
<path fill-rule="evenodd" clip-rule="evenodd" d="M11.0087 21.633L8.52407 27.8701H9.29049L9.89298 26.3584H13.0974L13.7037 27.8701H14.4701L11.9855 21.633H11.0087ZM12.8576 25.7607L11.49 22.3514L10.1312 25.7607H9.63113V26.3584H9.89298L10.1312 25.7607H12.8576Z" fill="#316DC2"/>
<path d="M9.63113 25.7607V26.3584H9.89298L10.1312 25.7607H9.63113Z" fill="#316DC2"/>
<path fill-rule="evenodd" clip-rule="evenodd" d="M24.5386 21.633L22.0539 27.8701H22.8204L23.4229 26.3584H26.6272L27.2336 27.8701H28L25.5154 21.633H24.5386ZM26.3875 25.7607L25.0199 22.3514L23.6611 25.7607H23.161V26.3584H23.4229L23.6611 25.7607H26.3875Z" fill="#316DC2"/>
<path d="M23.161 25.7607V26.3584H23.4229L23.6611 25.7607H23.161Z" fill="#316DC2"/>
<path d="M5.81254 5.47597C5.29087 5.85346 4.98512 6.6529 5.56148 7.60874C6.13783 8.56458 14.372 15.0165 14.6739 15.1957C14.9758 15.375 15.2779 15.4048 16.0461 14.7775C16.8148 14.1502 23.2362 9.24971 23.4019 9.10231C23.6656 8.86779 23.7313 8.29579 23.4019 8.02685C23.4019 8.02685 15.6225 13.941 15.3677 14.1801C15.1132 14.4191 14.7169 14.0308 14.7913 13.5231C14.866 13.0152 14.921 12.9554 15.9091 12.1788C16.8972 11.4021 22.4993 7.08887 22.7535 6.89821C23.0414 6.68214 23.0483 6.30052 22.5768 5.96305C21.9214 5.49384 14.8379 0.376276 14.601 0.19713C14.3634 0.0178359 14.0345 -0.145063 13.5406 0.213377C13.0466 0.571818 6.77091 4.78227 5.81254 5.47597Z" fill="#316DC2"/>
<path d="M14.6739 15.8252C14.4757 15.7075 10.8629 12.8896 8.23872 10.6955V15.2702C8.23669 18.6096 17.4981 20.3938 20.5663 16.2887V11.9163C18.6815 13.3631 16.4767 15.0556 16.0461 15.407C15.2779 16.0342 14.9758 16.0044 14.6739 15.8252Z" fill="#316DC2"/>
<path d="M18.593 10.8091C18.593 10.8091 19.97 11.5124 20.068 14.3426L19.4009 14.1558L18.8671 15.3076C18.6413 12.2085 17.4116 11.7591 17.4116 11.7591L18.593 10.8091Z" fill="#98B8E6"/>
</g></symbol><symbol id="map-marker" viewBox="0 0 52 70"><g fill="none">
<path fill-rule="evenodd" clip-rule="evenodd" d="M13.3873 3.27882C21.3322 -1.16442 31.0979 -1.08676 38.9684 3.48225C46.7614 8.14432 51.4978 16.4647 51.4537 25.4152C51.2723 34.3069 46.1935 42.6651 39.8451 49.1264C36.1809 52.8725 32.0819 56.185 27.6318 58.9963C27.1735 59.2513 26.6714 59.4221 26.1505 59.5001C25.6491 59.4796 25.1608 59.337 24.7296 59.0852C17.9357 54.8611 11.9753 49.4692 7.13526 43.169C3.08526 37.9099 0.784326 31.5561 0.544926 24.9706C0.539668 16.003 5.44228 7.72206 13.3873 3.27882ZM17.9783 28.6819C19.3148 31.8531 22.4693 33.9216 25.9691 33.9216C28.2618 33.9374 30.4658 33.0535 32.0899 31.4668C33.714 29.8801 34.6232 27.7224 34.6151 25.4745C34.6273 22.0432 32.5286 18.9432 29.2988 17.6218C26.069 16.3004 22.3452 17.0183 19.8662 19.4403C17.3872 21.8623 16.6419 25.5107 17.9783 28.6819Z" fill="#316DC2"/>
<path d="M44.1815 66.5001C44.1815 68.4331 36.0412 70.0001 25.9996 70.0001C15.958 70.0001 7.81769 68.4331 7.81769 66.5001C7.81769 64.5671 15.958 63.0001 25.9996 63.0001C36.0412 63.0001 44.1815 64.5671 44.1815 66.5001Z" fill="#316DC2"/>
</g></symbol><symbol id="select-arrow" viewBox="0 0 12 12"><g fill="none">
<path opacity="0.6" d="M11.4545 3.81836L5.99996 8.72745L0.54541 3.81836" stroke="white"/>
</g></symbol></svg>